<mxfile host="Electron" modified="2023-07-17T02:38:45.726Z" agent="Mozilla/5.0 (Windows NT 10.0; Win64; x64) AppleWebKit/537.36 (KHTML, like Gecko) draw.io/21.5.1 Chrome/112.0.5615.204 Electron/24.6.0 Safari/537.36" etag="5tJPuSFL6zznATh2qh9_" version="21.5.1" type="device">
  <diagram name="Page-1" id="tDzd1l8kE14T5polJzIk">
    <mxGraphModel dx="1098" dy="672" grid="1" gridSize="10" guides="1" tooltips="1" connect="1" arrows="1" fold="1" page="1" pageScale="1" pageWidth="850" pageHeight="1100" math="0" shadow="0">
      <root>
        <mxCell id="0" />
        <mxCell id="1" parent="0" />
        <mxCell id="OHm8wxz-h7m4ICnciXQe-4" style="edgeStyle=orthogonalEdgeStyle;rounded=0;orthogonalLoop=1;jettySize=auto;html=1;" parent="1" source="OHm8wxz-h7m4ICnciXQe-1" target="OHm8wxz-h7m4ICnciXQe-2" edge="1">
          <mxGeometry relative="1" as="geometry">
            <Array as="points">
              <mxPoint x="400" y="299" />
              <mxPoint x="400" y="299" />
            </Array>
          </mxGeometry>
        </mxCell>
        <mxCell id="OHm8wxz-h7m4ICnciXQe-1" value="&lt;font style=&quot;font-size: 16px;&quot;&gt;&lt;b&gt;Amazon Kafka&lt;/b&gt;&lt;/font&gt;" style="sketch=0;points=[[0,0,0],[0.25,0,0],[0.5,0,0],[0.75,0,0],[1,0,0],[0,1,0],[0.25,1,0],[0.5,1,0],[0.75,1,0],[1,1,0],[0,0.25,0],[0,0.5,0],[0,0.75,0],[1,0.25,0],[1,0.5,0],[1,0.75,0]];outlineConnect=0;fontColor=#232F3E;gradientColor=#945DF2;gradientDirection=north;fillColor=#5A30B5;strokeColor=#ffffff;dashed=0;verticalLabelPosition=bottom;verticalAlign=top;align=center;html=1;fontSize=12;fontStyle=0;aspect=fixed;shape=mxgraph.aws4.resourceIcon;resIcon=mxgraph.aws4.managed_streaming_for_kafka;" parent="1" vertex="1">
          <mxGeometry x="450" y="242.5" width="93" height="93" as="geometry" />
        </mxCell>
        <mxCell id="OHm8wxz-h7m4ICnciXQe-3" style="edgeStyle=orthogonalEdgeStyle;rounded=0;orthogonalLoop=1;jettySize=auto;html=1;" parent="1" source="OHm8wxz-h7m4ICnciXQe-2" target="OHm8wxz-h7m4ICnciXQe-1" edge="1">
          <mxGeometry relative="1" as="geometry">
            <Array as="points">
              <mxPoint x="340" y="270" />
              <mxPoint x="340" y="270" />
            </Array>
          </mxGeometry>
        </mxCell>
        <mxCell id="OHm8wxz-h7m4ICnciXQe-2" value="&lt;font style=&quot;font-size: 16px;&quot;&gt;&lt;b&gt;EC2 for Kafka Client&lt;/b&gt;&lt;/font&gt;" style="outlineConnect=0;dashed=0;verticalLabelPosition=bottom;verticalAlign=top;align=center;html=1;shape=mxgraph.aws3.ec2;fillColor=#F58534;gradientColor=none;" parent="1" vertex="1">
          <mxGeometry x="160" y="237.5" width="86.5" height="103" as="geometry" />
        </mxCell>
      </root>
    </mxGraphModel>
  </diagram>
</mxfile>
